# xmcd CD database file
#
# Track frame offsets:
#	182
#	33530
#	71717
#	99947
#	128295
#	155742
#	181410
#	207157
#
# Disc length: 3115 seconds
#
# Revision: 0
# Processed by: cddbd v1.5.1PL2 Copyright (c) Steve Scherf et al.
# Submitted via: CDex 1.51
#
DISCID=660c2908
DTITLE=Korinek Petr - Porta coeli
DYEAR=1992
DGENRE=Jazz
TTITLE0=Sazava
TTITLE1=Brevnov monastery
TTITLE2=Porta celi
TTITLE3=Bethlehem chapel
TTITLE4=The chapter or spis
TTITLE5=St. benedict of the hron
TTITLE6=Pribina's sacellum
TTITLE7=Laugaricio
EXTD=YEAR: 1992
EXTT0=
EXTT1=
EXTT2=
EXTT3=
EXTT4=
EXTT5=
EXTT6=
EXTT7=
PLAYORDER=
